<svg width="16" height="16" viewBox="0 0 16 16" fill="none" xmlns="http://www.w3.org/2000/svg">
<g clip-path="url(#clip0_1793_446)">
<path d="M8 15C11.866 15 15 11.866 15 8C15 4.13401 11.866 1 8 1C4.13401 1 1 4.13401 1 8C1 11.866 4.13401 15 8 15Z" fill="black"/>
<path fill-rule="evenodd" clip-rule="evenodd" d="M16 8C16 12.4183 12.4183 16 8 16C3.58172 16 0 12.4183 0 8C0 3.58172 3.58172 0 8 0C12.4183 0 16 3.58172 16 8ZM15 8C15 11.866 11.866 15 8 15C4.13401 15 1 11.866 1 8C1 4.13401 4.13401 1 8 1C11.866 1 15 4.13401 15 8Z" fill="white"/>
<path d="M12.6399 13.2422L6.32159 5.10352H5.10327V10.8942H6.07793V6.34128L11.8719 13.8272L12.6399 13.2422Z" fill="url(#paint0_linear_1793_446)"/>
<path d="M10.977 5.10352H10.0115V10.8966H10.977V5.10352Z" fill="url(#paint1_linear_1793_446)"/>
</g>
<defs>
<linearGradient id="paint0_linear_1793_446" x1="9.52856" y1="10.1323" x2="12.3849" y2="13.6725" gradientUnits="userSpaceOnUse">
<stop stop-color="white"/>
<stop offset="1" stop-color="white" stop-opacity="0"/>
</linearGradient>
<linearGradient id="paint1_linear_1793_446" x1="10.4942" y1="5.10352" x2="10.4781" y2="9.35783" gradientUnits="userSpaceOnUse">
<stop stop-color="white"/>
<stop offset="1" stop-color="white" stop-opacity="0"/>
</linearGradient>
<clipPath id="clip0_1793_446">
<rect width="16" height="16" fill="white"/>
</clipPath>
</defs>
</svg>
